<mxfile host="app.diagrams.net" modified="2024-02-07T11:56:47.276Z" agent="Mozilla/5.0 (Macintosh; Intel Mac OS X 10_15_7) AppleWebKit/537.36 (KHTML, like Gecko) Chrome/121.0.0.0 Safari/537.36" version="23.1.1" etag="8Jd5nA4P8izbCRear0Ya" type="github">
  <diagram name="Page-1" id="8srLlbNHD7GUvgmS5t4a">
    <mxGraphModel>
      <root>
        <mxCell id="0" />
        <mxCell id="1" parent="0" />
      </root>
    </mxGraphModel>
  </diagram>
</mxfile>
